<?xml version="1.0" encoding="iso-8859-1"?>
<!-- Uploaded to: SVG Repo, www.svgrepo.com, Generator: SVG Repo Mixer Tools -->
<svg height="800px" width="800px" version="1.1" id="Layer_1" xmlns="http://www.w3.org/2000/svg" xmlns:xlink="http://www.w3.org/1999/xlink" 
	 viewBox="0 0 512 512" xml:space="preserve">
<path style="fill:#088690;" d="M8.326,415.681c-11.101,11.101-11.1,29.099,0,40.199c11.102,11.101,29.099,11.101,40.2,0
	l112.524-112.524l-40.198-40.199L8.326,415.681z"/>
<path style="fill:#0BAEBC;" d="M120.851,303.157L8.326,415.681c-11.101,11.101-11.1,29.099-0.001,40.199l132.624-132.624
	L120.851,303.157z"/>
<path style="fill:#C9E5F9;" d="M499.682,171.266L376.212,47.795L98.685,325.323l123.472,123.471
	c16.42,16.423,43.047,16.423,59.469,0.001l218.057-218.058C516.105,214.315,516.106,187.688,499.682,171.266z"/>
<path style="fill:#B5CDDF;" d="M194.519,421.156l27.638,27.638c16.42,16.422,43.047,16.423,59.469,0l218.057-218.057
	c16.423-16.422,16.424-43.049,0-59.471l-27.637-27.637L194.519,421.156z"/>
<circle style="fill:#088690;" cx="376.209" cy="123.644" r="21.097"/>
</svg>